<?xml version="1.0" standalone="no"?><!DOCTYPE svg PUBLIC "-//W3C//DTD SVG 1.1//EN" "http://www.w3.org/Graphics/SVG/1.1/DTD/svg11.dtd"><svg t="1626261970555" class="icon" viewBox="0 0 1024 1024" version="1.1" xmlns="http://www.w3.org/2000/svg" p-id="5426" xmlns:xlink="http://www.w3.org/1999/xlink" width="200" height="200"><defs><style type="text/css"></style></defs><path d="M959.4676717 574.30774518c-3.0352877 3.64331615-7.89223348 6.07300267-12.75039288 6.67981749h-1.82165807c-4.85694578 0-9.10707675-1.21362963-12.74917927-4.25013097L512 226.41231645 91.85355852 576.7374317c-4.25013097 3.03650133-9.10707675 4.85694578-14.57205097 4.25013097-4.85694578-0.60681482-9.71389155-3.03650133-12.75039288-6.67981749l-37.64315022-44.92856888c-6.67860385-7.89344711-5.46376059-20.64262637 2.42847288-27.32123022l436.53893689-363.68232297c25.50078578-21.25065482 66.78603852-21.25065482 92.2868243 0L706.28754015 262.23502222v-118.39442489c0-10.92873482 8.50026192-19.42899675 19.42899674-19.42899674h116.57276681c10.92873482 0 19.42899675 8.50026192 19.42899675 19.42899674v247.71637097l132.96647585 110.50097778c7.89223348 6.67860385 9.10707675 19.42778311 2.42847288 27.32123022l-37.64557748 44.92856888z m-97.75058488 288.39602252c0 21.25065482-17.60733867 38.85799348-38.85799349 38.85799348H589.71477333V668.41622755h-155.42954666v233.14432H201.13969303c-21.25065482 0-38.85799348-17.60733867-38.85799348-38.85799347V571.27367111c0-1.21605689 0.60681482-2.42968652 0.60681482-3.64331614L512 279.84236089l349.110272 287.78799408c0.60681482 1.21362963 0.60681482 2.42725925 0.60681482 3.64331614v291.43009659z"  p-id="5427"></path></svg>
