<?xml version="1.0" encoding="UTF-8"?>
<!DOCTYPE svg PUBLIC "-//W3C//DTD SVG 1.1//EN" "http://www.w3.org/Graphics/SVG/1.1/DTD/svg11.dtd">
<!-- Creator: CorelDRAW -->
<?xml-stylesheet href="更新记录.css" type="text/css"?>
<svg xmlns="http://www.w3.org/2000/svg" xml:space="preserve" width="50mm" height="50mm" style="shape-rendering:geometricPrecision; text-rendering:geometricPrecision; image-rendering:optimizeQuality; fill-rule:evenodd; clip-rule:evenodd"
viewBox="0 0 50 50"
 xmlns:xlink="http://www.w3.org/1999/xlink"
 version="1.0"
 enable-background="new 0 0 200 200">
 <g id="图层_x0020_1">
  <metadata id="CorelCorpID_0Corel-Layer"/>
  <g id="_178549368">
   <path id="_178546152" class="fil0" d="M40.3036 25.7768c-6.1824,-1.9442 -11.3107,1.0367 -13.6047,4.9813 -2.5361,4.3614 -2.0208,10.191 2.1642,14.109 -0.1873,0.217 -0.4356,0.1031 -0.6466,0.1031 -6.6866,0.0077 -13.3735,0.0077 -20.0601,0.0044 -2.0207,0 -3.1419,-1.1165 -3.1433,-3.1277 -0.0016,-11.2402 -0.0016,-22.4805 0,-33.7194 0,-2.0098 1.1244,-3.1263 3.1449,-3.1263 9.6788,-0.0016 19.3576,-0.0016 29.0361,0 1.9647,0 3.1063,1.1338 3.1079,3.0857 0.0032,5.6982 0.0016,11.3966 0.0016,17.0946l0 0.5953 0 0zm-23.2819 -11.406c-1.5085,0 -3.0185,-0.0047 -4.527,0.0016 -0.698,0.0031 -1.6412,-0.242 -2.0285,0.1125 -0.4513,0.4107 -0.0719,1.3711 -0.1531,2.0849 -0.0609,0.5418 0.1672,0.6246 0.6497,0.6216 3.487,-0.0186 6.9725,-0.0079 10.4595,-0.0126 0.6979,-0.0016 1.6413,0.242 2.0284,-0.1124 0.4513,-0.4108 0.0719,-1.3712 0.1531,-2.0847 0.0609,-0.5419 -0.1671,-0.6277 -0.6496,-0.6217 -1.9769,0.0251 -3.9554,0.0108 -5.9325,0.0108zm-0.003 9.682c1.5352,0 3.0701,0.014 4.6052,-0.0063 0.6403,-0.0093 1.5163,0.292 1.8584,-0.1232 0.3231,-0.3935 0.0593,-1.24 0.1232,-1.8803 0.0625,-0.623 -0.0952,-0.8276 -0.7761,-0.8183 -3.4605,0.0406 -6.9211,0.0126 -10.3816,0.025 -0.6934,0.0032 -1.6427,-0.3062 -2.0083,0.1311 -0.3498,0.4186 -0.0656,1.3382 -0.1311,2.03 -0.0562,0.5857 0.186,0.6639 0.6979,0.656 2.0038,-0.0313 4.0087,-0.014 6.0124,-0.014l0 0zm-1.3884 4.0602c-1.04,0 -2.0816,-0.0189 -3.1216,0.006 -0.7168,0.0173 -1.674,-0.3185 -2.0816,0.1453 -0.3512,0.4014 -0.0625,1.3382 -0.1155,2.0346 -0.039,0.5152 0.1295,0.6417 0.6371,0.6372 2.6015,-0.0266 5.2032,-0.0016 7.8048,-0.0188 0.7168,-0.0045 1.7022,0.325 2.077,-0.1419 0.3591,-0.4466 0.0733,-1.3915 0.1185,-2.1145 0.0283,-0.4448 -0.1185,-0.5636 -0.5574,-0.5574 -1.5881,0.0249 -3.1746,0.0095 -4.7613,0.0095z"/>
   <path id="_178546368" class="fil0" d="M44.9881 36.4082c-0.0077,4.7254 -3.8603,8.57 -8.5888,8.57 -4.7597,0 -8.6105,-3.8758 -8.5888,-8.6465 0.0217,-4.7158 3.8933,-8.5451 8.6262,-8.5309 4.7209,0.0139 8.558,3.8771 8.5514,8.6074l0 0zm-9.9939 -2.1644c0,0.9102 0.0046,1.8209 -0.0033,2.7312 -0.0032,0.2952 0.0079,0.5247 0.3391,0.6949 1.7067,0.8776 3.3995,1.7835 5.0906,2.6907 0.253,0.136 0.375,0.1281 0.553,-0.1403 1.3491,-2.0083 1.3491,-2.0347 -0.7215,-3.1327 -0.0455,-0.025 -0.0921,-0.0468 -0.1376,-0.0719 -0.7494,-0.4093 -1.7522,-0.6481 -2.1783,-1.2775 -0.4527,-0.6667 -0.092,-1.7113 -0.1328,-2.5908 -0.0343,-0.7196 0.3062,-1.6943 -0.1248,-2.0954 -0.4683,-0.4342 -1.432,-0.0905 -2.1783,-0.1281 -0.0266,-0.0017 -0.0532,0.0032 -0.0782,0 -0.3449,-0.0563 -0.4435,0.0936 -0.4356,0.4325 0.0216,0.9618 0.0077,1.9253 0.0077,2.8874l0 0z"/>
  </g>
 </g>
</svg>
