<?xml version="1.0" encoding="UTF-8"?>
<!DOCTYPE svg PUBLIC "-//W3C//DTD SVG 1.1//EN" "http://www.w3.org/Graphics/SVG/1.1/DTD/svg11.dtd">
<!-- Creator: CorelDRAW -->
<?xml-stylesheet href="关于我们.css" type="text/css"?>
<svg xmlns="http://www.w3.org/2000/svg" xml:space="preserve" width="50mm" height="50mm" style="shape-rendering:geometricPrecision; text-rendering:geometricPrecision; image-rendering:optimizeQuality; fill-rule:evenodd; clip-rule:evenodd"
viewBox="0 0 50 50"
 xmlns:xlink="http://www.w3.org/1999/xlink"
 version="1.1"
 enable-background="new 0 0 200 200">
 <g id="图层_x0020_1">
  <metadata id="CorelCorpID_0Corel-Layer"/>
  <path class="fil0" d="M24.9999 5c-10.9755,0 -19.9999,9.0244 -19.9999,19.9999 0,10.9754 9.0244,20.0001 19.9999,20.0001 10.9754,0 20.0001,-9.0247 20.0001,-20.0001 0,-10.9755 -9.0247,-19.9999 -20.0001,-19.9999zm17.4999 21.6462c-0.1219,0.9758 -0.2439,2.0122 -0.4879,2.9269 -0.061,0.3656 -0.1827,0.6707 -0.3048,0.9758 -0.0612,0.1217 -0.0612,0.3048 -0.1219,0.4268 -0.1218,0.2439 -0.1827,0.4878 -0.3049,0.7318 -0.0611,0.1827 -0.1829,0.4268 -0.2438,0.6095 -0.3051,0.6099 -0.61,1.2195 -0.9758,1.8295 -0.4269,0.6707 -0.8537,1.3413 -1.3415,1.951 -0.7319,-2.0122 -1.9513,-3.9024 -3.4755,-5.4269 -0.3658,-0.3658 -0.7926,-0.7318 -1.2195,-1.0974 -0.3048,-0.2439 -0.6097,-0.4879 -0.9148,-0.6707 -1.0365,-0.7318 -2.1339,-1.2805 -3.2925,-1.7073 2.3779,-1.5855 3.9026,-4.2682 3.9026,-7.2561 0,-1.4635 -0.3658,-2.866 -1.0976,-4.1463 -0.4268,-0.7316 -0.9145,-1.4025 -1.5245,-2.0122 -0.7926,-0.7926 -1.7681,-1.4632 -2.8047,-1.8902 -1.0365,-0.4268 -2.1949,-0.6707 -3.3537,-0.6707 -4.756,0 -8.7194,4.0244 -8.7194,8.7194 0,1.6463 0.4878,3.1705 1.2805,4.4511 0.1219,0.1829 0.2439,0.3658 0.3658,0.5487 0.2439,0.366 0.549,0.7318 0.9145,1.0366l0 0c0.3658,0.3656 0.7319,0.7317 1.1587,0.9758 -4.0856,1.4021 -7.3781,4.5119 -9.0245,8.5972 -1.0976,-1.4632 -1.9512,-3.0486 -2.5609,-4.817 0,-0.0609 0,-0.0609 -0.061,-0.1217 -0.6097,-1.8293 -0.9757,-3.7194 -0.9757,-5.7317 0,-8.7194 6.2804,-15.9146 14.573,-17.3171 0.061,0 0.1219,0 0.1219,0 0.1829,-0.061 0.427,-0.061 0.6097,-0.061 0.1219,0 0.1829,0 0.3048,-0.061 0.1829,0 0.3658,-0.061 0.4878,-0.061 0.1219,0 0.2439,0 0.427,0 0.1219,0 0.3048,0 0.4268,0 0.122,0 0.3048,0 0.4268,0 0.1829,0 0.3048,0 0.4878,0 0.1829,0 0.3048,0 0.4879,0 0.1218,0 0.2437,0 0.3656,0 0.1829,0 0.3658,0 0.5489,0.061 0.061,0 0.1218,0 0.1829,0 8.9635,1.0974 15.7926,8.5365 15.7926,17.5607 0,0.549 0,1.0365 -0.0611,1.5855l0 0.061 0.0004 0z"/>
 </g>
</svg>
