<?xml version="1.0" encoding="UTF-8"?>
<!DOCTYPE svg PUBLIC "-//W3C//DTD SVG 1.1//EN" "http://www.w3.org/Graphics/SVG/1.1/DTD/svg11.dtd">
<!-- Creator: CorelDRAW X6 -->
<svg xmlns="http://www.w3.org/2000/svg" xml:space="preserve" width="40mm" height="43.789mm" version="1.1" style="shape-rendering:geometricPrecision; text-rendering:geometricPrecision; image-rendering:optimizeQuality; fill-rule:evenodd; clip-rule:evenodd"
viewBox="0 0 4000 4379"
 xmlns:xlink="http://www.w3.org/1999/xlink"
 t="1631619273043"
 p-id="2324">
 <defs>
  <style type="text/css">
   <![CDATA[
    .fil0 {fill:black}
   ]]>
  </style>
 </defs>
 <g id="图层_x0020_1">
  <metadata id="CorelCorpID_0Corel-Layer"/>
  <g id="_907588720">
   <path class="fil0" d="M3649 831l-1297 -749c-189,-109 -514,-109 -703,0l-1297 749c-194,112 -351,385 -351,608l0 1498c0,224 158,497 351,608l1297 749c95,54 219,85 351,85 132,0 257,-30 352,-85l1297 -749c194,-112 351,-385 351,-608l0 -1498c0,-224 -158,-497 -351,-608zm-1751 3085c0,45 -10,82 -28,104 -32,-2 -63,-12 -91,-29l-1248 -666c-140,-81 -259,-286 -259,-447l0 -1259c0,-39 8,-128 81,-128 26,0 57,10 91,29l1195 690c140,81 258,286 258,447l0 1259 0 0zm-187 -1967l-1165 -702c-51,-30 -81,-66 -81,-99 0,-33 29,-69 81,-99l1195 -690c66,-38 161,-60 258,-60 98,0 192,22 259,60l1195 690c51,30 81,66 81,99 0,33 -29,69 -81,99l-1195 690c-164,94 -386,104 -547,12zm1714 1480l-1035 511 -91 29c-73,0 -81,-89 -81,-128l0 -1258c0,-162 119,-367 259,-448l1063 -616c27,-17 58,-27 90,-29 73,0 81,89 81,128l0 1258c-10,245 -60,422 -286,552z" p-id="2325"/>
   <path class="fil0" d="M668 1987c-93,0 -168,101 -168,225 0,124 76,225 168,225 92,0 168,-101 168,-225 0,-124 -76,-225 -168,-225l0 0zm0 764c-93,0 -168,101 -168,225 0,124 76,225 168,225 92,0 168,-101 168,-225 0,-124 -76,-225 -168,-225l0 0zm646 325c-93,0 -168,101 -168,225 0,124 76,225 168,225 93,0 168,-101 168,-225 0,-124 -76,-225 -168,-225zm1447 -681c-93,0 -168,101 -168,225 0,124 76,225 168,225 93,0 168,-101 168,-225 0,-124 -75,-225 -168,-225l0 0zm539 241c-93,0 -168,101 -168,225 0,124 76,225 168,225 92,0 168,-101 168,-225 0,-124 -75,-225 -168,-225l0 0zm-1308 -1666c-136,0 -247,76 -247,168 0,92 111,168 247,168 136,0 247,-76 247,-168 0,-93 -111,-168 -247,-168l0 0zm-622 1358c-93,0 -168,101 -168,225 0,124 76,225 168,225 47,0 92,-26 124,-73 29,-41 44,-95 44,-151 0,-124 -76,-225 -168,-225z" p-id="2326"/>
  </g>
 </g>
</svg>
