<?xml version="1.0" encoding="UTF-8"?>
<!DOCTYPE svg PUBLIC "-//W3C//DTD SVG 1.1//EN" "http://www.w3.org/Graphics/SVG/1.1/DTD/svg11.dtd">
<!-- Creator: CorelDRAW X6 -->
<svg xmlns="http://www.w3.org/2000/svg" xml:space="preserve" width="40mm" height="18.843mm" version="1.1" style="shape-rendering:geometricPrecision; text-rendering:geometricPrecision; image-rendering:optimizeQuality; fill-rule:evenodd; clip-rule:evenodd"
viewBox="0 0 4000 1884"
 xmlns:xlink="http://www.w3.org/1999/xlink">
 <defs>
  <style type="text/css">
   <![CDATA[
    .fil0 {fill:#EE306F}
   ]]>
  </style>
 </defs>
 <g id="图层_x0020_1">
  <metadata id="CorelCorpID_0Corel-Layer"/>
  <g id="_906974320">
   <path class="fil0" d="M3059 0c-383,0 -646,241 -873,538l135 197c208,-285 429,-511 739,-511 0,0 1,0 1,0 349,0 647,252 704,596l-883 0 0 225 1111 0c4,-37 7,-75 7,-113 0,-516 -418,-934 -934,-934 -2,0 -5,0 -7,0m0 0l0 0 0 0z"/>
   <path class="fil0" d="M3038 1657c-385,0 -639,-331 -961,-817 -322,-486 -627,-840 -1098,-840 -480,8 -983,345 -979,942 4,615 515,933 979,942 389,7 656,-242 886,-541l-136 -200c-211,288 -473,536 -787,527 -357,-10 -731,-277 -724,-724 7,-517 402,-716 761,-724 359,-7 625,320 961,822 335,502 627,841 1099,841 1,0 2,0 3,0 391,0 743,-238 889,-601l-253 0c-129,231 -373,374 -637,374 -1,0 -1,0 -2,0m0 0l0 0 0 0z"/>
  </g>
 </g>
</svg>
