<?xml version="1.0" encoding="UTF-8"?>
<!DOCTYPE svg PUBLIC "-//W3C//DTD SVG 1.1//EN" "http://www.w3.org/Graphics/SVG/1.1/DTD/svg11.dtd">
<!-- Creator: CorelDRAW X6 -->
<svg xmlns="http://www.w3.org/2000/svg" xml:space="preserve" width="50mm" height="50mm" version="1.1" style="shape-rendering:geometricPrecision; text-rendering:geometricPrecision; image-rendering:optimizeQuality; fill-rule:evenodd; clip-rule:evenodd"
viewBox="0 0 5000 5000"
 xmlns:xlink="http://www.w3.org/1999/xlink"
 t="1632206448062"
 p-id="3197">
 <defs>
  <style type="text/css">
   <![CDATA[
    .fil0 {fill:black}
   ]]>
  </style>
 </defs>
 <g id="图层_x0020_1">
  <metadata id="CorelCorpID_0Corel-Layer"/>
  <path class="fil0" d="M2500 0c-1381,0 -2500,1119 -2500,2500 0,1381 1119,2500 2500,2500 1381,0 2500,-1119 2500,-2500 0,-1381 -1119,-2500 -2500,-2500zm183 4099c-58,60 -130,91 -217,91 -89,-2 -164,-34 -224,-94 -53,-53 -79,-123 -79,-210 0,-92 29,-167 87,-225 55,-53 128,-80 217,-80 84,0 156,30 217,91 58,56 87,127 87,214 0,89 -29,161 -87,214zm-173 -3308c293,0 436,314 407,661l-112 1312c-15,182 -109,319 -294,319 -185,0 -279,-137 -294,-319l-112 -1312c-30,-347 114,-661 407,-661l0 0z" p-id="3198"/>
 </g>
</svg>
