<?xml version="1.0" encoding="UTF-8"?>
<!DOCTYPE svg PUBLIC "-//W3C//DTD SVG 1.1//EN" "http://www.w3.org/Graphics/SVG/1.1/DTD/svg11.dtd">
<!-- Creator: CorelDRAW -->
<?xml-stylesheet href="隐私市场.css" type="text/css"?>
<svg xmlns="http://www.w3.org/2000/svg" xml:space="preserve" width="50mm" height="50mm" style="shape-rendering:geometricPrecision; text-rendering:geometricPrecision; image-rendering:optimizeQuality; fill-rule:evenodd; clip-rule:evenodd"
viewBox="0 0 50 50"
 xmlns:xlink="http://www.w3.org/1999/xlink">
 <g id="图层_x0020_1">
  <metadata id="CorelCorpID_0Corel-Layer"/>
  <path class="fil0" d="M18.8171 14.987c-0.5503,0 -1.0586,-0.2935 -1.3336,-0.7699 -0.2753,-0.4765 -0.2753,-1.0636 0,-1.54 0.275,-0.4765 0.7833,-0.7701 1.3336,-0.7701l12.3142 0c0.8505,0 1.54,0.6896 1.54,1.54 0,0.8505 -0.6895,1.54 -1.54,1.54l-12.3142 0zm7.6903 18.6966l0 4.2318c0,0.1885 -0.1584,0.3479 -0.3518,0.3479l-2.3054 0c-0.1965,0 -0.3547,-0.1594 -0.3547,-0.3479l0 -4.2315c-1.0827,-0.5484 -1.8334,-1.6467 -1.8334,-2.9358 0,-1.8225 1.4953,-3.3053 3.3364,-3.3053 1.844,0 3.3394,1.4825 3.3394,3.3053 0.0026,1.288 -0.7467,2.3874 -1.8305,2.9355zm10.7925 -6.0751c0,-0.55 0.2936,-1.0585 0.77,-1.3335 0.4764,-0.2751 1.0635,-0.2751 1.54,0 0.4764,0.275 0.77,0.7835 0.77,1.3335l0 11.7587c0.0385,1.258 -0.4246,2.4798 -1.2875,3.3961 -0.8627,0.9165 -2.0544,1.4522 -3.3125,1.4897l-21.5857 0c-1.2575,-0.0323 -2.4507,-0.5628 -3.3173,-1.4747 -0.8663,-0.9118 -1.3349,-2.1308 -1.3026,-3.3884l0 -11.7814c0,-0.852 0.6906,-1.5428 1.5428,-1.5428 0.852,0 1.5429,0.6908 1.5429,1.5428l0 11.7587c-0.0613,0.9177 0.621,1.7166 1.5371,1.8l21.5628 0c0.9172,-0.0818 1.6012,-0.8812 1.54,-1.8l0 -11.7587zm-0.9113 -18.7814l-22.8259 0c-0.6275,-0.0025 -1.1938,0.3763 -1.4313,0.9571l-3.9715 9.6857c-0.1184,0.2653 -0.1504,0.5614 -0.0915,0.8457 0.2371,1.6541 1.7475,2.8191 3.4077,2.628 1.6599,-0.1912 2.8661,-1.6689 2.721,-3.3337 0,-0.8505 0.6895,-1.54 1.54,-1.54 0.8505,0 1.54,0.6895 1.54,1.54 0,1.7012 1.379,3.08 3.08,3.08 1.701,0 3.08,-1.3788 3.08,-3.08 0,-0.5501 0.2935,-1.0586 0.77,-1.3336 0.4764,-0.2751 1.0635,-0.275 1.5399,0 0.4765,0.275 0.7701,0.7835 0.7701,1.3336 0,1.7012 1.3789,3.08 3.0799,3.08 1.701,0 3.08,-1.3788 3.08,-3.08 0.0357,-0.8255 0.7153,-1.4765 1.5415,-1.4765 0.8263,0 1.5059,0.651 1.5414,1.4765 -0.1947,1.7012 1.0261,3.2382 2.7271,3.4329 1.7012,0.1949 3.2381,-1.026 3.4329,-2.7272 0.0581,-0.2847 0.0252,-0.5805 -0.0943,-0.8457l-4.0027 -9.6857c-0.238,-0.582 -0.8057,-0.9608 -1.4343,-0.9571zm-25.2715 16.9428c-2.8614,0.0065 -5.3503,-1.9583 -6.0085,-4.7428 -0.2047,-0.9129 -0.1189,-1.867 0.2456,-2.7285l3.9315 -9.6858c0.7139,-1.7332 2.4026,-2.8648 4.277,-2.8657l22.8287 -0.0001c1.8742,0 3.5656,1.1287 4.2771,2.8658l3.9771 9.6858c0.3629,0.86 0.4515,1.8143 0.2458,2.7285 -0.5179,2.2659 -2.2671,4.0476 -4.5231,4.6068 -2.2562,0.559 -4.6351,-0.1993 -6.1513,-1.9611 -1.1693,1.326 -2.8521,2.0857 -4.62,2.0857 -1.7679,-0.0001 -3.4506,-0.7597 -4.6199,-2.0857 -1.1694,1.326 -2.8521,2.0857 -4.62,2.0857 -1.7679,-0.0001 -3.4506,-0.7597 -4.62,-2.0857 -1.1669,1.3309 -2.8502,2.095 -4.62,2.0971z"/>
 </g>
</svg>
