<?xml version="1.0" encoding="UTF-8"?>
<!DOCTYPE svg PUBLIC "-//W3C//DTD SVG 1.1//EN" "http://www.w3.org/Graphics/SVG/1.1/DTD/svg11.dtd">
<!-- Creator: CorelDRAW 2020 (64-Bit) -->
<svg xmlns="http://www.w3.org/2000/svg" xml:space="preserve" width="50mm" height="50mm" version="1.1" style="shape-rendering:geometricPrecision; text-rendering:geometricPrecision; image-rendering:optimizeQuality; fill-rule:evenodd; clip-rule:evenodd"
viewBox="0 0 5000 5000"
 xmlns:xlink="http://www.w3.org/1999/xlink"
 xmlns:xodm="http://www.corel.com/coreldraw/odm/2003">
 <defs>
  <style type="text/css">
   <![CDATA[
    .fil0 {fill:#332C2B;fill-rule:nonzero}
   ]]>
  </style>
 </defs>
 <g id="图层_x0020_1">
  <metadata id="CorelCorpID_0Corel-Layer"/>
  <path class="fil0" d="M1293.64 2588.04c-63.04,0 -122.4,-27.68 -160.32,-74.72l-601.16 -746.56c-45.48,-55.28 -53.04,-132.56 -19,-195.56 36.28,-64.6 105.04,-104.2 179.16,-103.2l1202.6 0c75.52,0.2 144.32,40.04 178.4,102.72 30.32,60.52 23.32,133.04 -18.08,186.6l-601.28 746.72c-37.44,51.44 -96.72,82.48 -160.32,84zm2396.8 -960c-63.2,0 -122.56,-27.68 -160.32,-74.72l-601.28 -746.6c-41.44,-53.56 -48.48,-126.2 -18.08,-186.72 28.48,-68.32 99.68,-113.12 178.4,-112l1202.44 0c76,0 145.44,40 179.2,103.2 34.04,62.92 26.56,140.24 -18.88,195.52l-601.16 746.6c-39.44,47.76 -98.32,75.2 -160.32,74.72zm620.8 350.72c-28.08,-73.96 -84.44,-133.68 -156.6,-166.12 -71.32,-31.72 -152.48,-32.92 -224.68,-3.16l-2932.48 1208.96c-131.04,53.44 -206.72,195.2 -180.2,337.92 26.6,142.56 147.84,245.6 288.64,245.28 37.32,0 74.08,-7.04 108.68,-21.12l1064.32 -438.24 0 761.6 -586.4 0c-161.92,0 -293.28,135.2 -293.28,302.08 0,166.88 131.2,302.08 293.28,302.08l1759.52 0c161.92,0 293.12,-135.36 293.12,-302.24 0,-166.88 -131.2,-302.08 -293.12,-302.08l-586.56 0 0 -1003.2 1281.64 -528.96c72.92,-30.32 130.84,-88.32 160.96,-161.28 30.88,-73.6 31.96,-156.96 3.16,-231.52z"/>
 </g>
</svg>
