<?xml version="1.0" encoding="UTF-8"?>
<!DOCTYPE svg PUBLIC "-//W3C//DTD SVG 1.1//EN" "http://www.w3.org/Graphics/SVG/1.1/DTD/svg11.dtd">
<!-- Creator: CorelDRAW -->
<svg xmlns="http://www.w3.org/2000/svg" xml:space="preserve" width="50mm" height="50mm"
     style="shape-rendering:geometricPrecision; text-rendering:geometricPrecision; image-rendering:optimizeQuality; fill-rule:evenodd;"
     viewBox="0 0 50 50"
     xmlns:xlink="http://www.w3.org/1999/xlink">
 <defs>
  <style type="text/css">

  </style>
 </defs>
    <g id="图层_x0020_1">
  <metadata id="CorelCorpID_0Corel-Layer"/>
        <path
              d="M25.0001 -1.19869e-015c13.8048,0 24.9999,11.1952 24.9999,25.0001 0,13.8047 -11.1951,24.9999 -24.9999,24.9999 -13.8048,0 -25.0001,-11.1952 -25.0001,-24.9999 0,-13.8049 11.1953,-25.0001 25.0001,-25.0001zm0.8448 22.0972l1.0561 -1.3509 -0.0012 -0.0011c0.6526,-0.8514 1.4959,-1.5486 2.4659,-2.0279 0.9379,-0.4634 1.9897,-0.7238 3.0973,-0.7238 1.9342,0 3.6861,0.7846 4.9541,2.0525 1.2679,1.268 2.0525,3.0197 2.0525,4.954 0,0.3791 -0.0304,0.7513 -0.0882,1.1141l-0.9998 0 0 0.0074 -7.0279 -0.0001 0 -2.2428 5.74 0.0001c-0.2088,-0.8649 -0.6535,-1.638 -1.2624,-2.2469 -0.8621,-0.8619 -2.053,-1.3952 -3.3683,-1.3952 -0.7607,0 -1.4759,0.1752 -2.1073,0.4872 -0.6594,0.3259 -1.2331,0.8001 -1.6771,1.3796l-0.0089 0.0086 -1.4014 1.7912 -1.4234 -1.806zm13.2429 5.189c-0.3503,1.0151 -0.9275,1.9247 -1.6707,2.6679 -1.268,1.268 -3.0199,2.0526 -4.9541,2.0526 -1.1076,0 -2.1594,-0.2605 -3.0973,-0.7239 -0.97,-0.4792 -1.8133,-1.1765 -2.4659,-2.0279l0.0012 -0.001 -5.5706 -7.1419 -0.0089 -0.0086c-0.444,-0.5794 -1.0179,-1.0538 -1.6774,-1.3796 -0.6314,-0.312 -1.3467,-0.4872 -2.1073,-0.4872 -1.3153,0 -2.5062,0.5333 -3.3683,1.3952 -0.8619,0.862 -1.3952,2.053 -1.3952,3.3682 0,1.3153 0.5333,2.5063 1.3952,3.3683 0.8621,0.862 2.053,1.3952 3.3683,1.3952 0.7606,0 1.4759,-0.1752 2.1073,-0.4871 0.6595,-0.3259 1.2334,-0.8004 1.6774,-1.3797l0.0089 -0.0088 1.3566 -1.7476 1.4244 1.8073 -1.0123 1.3063 0.0012 0.001c-0.6527,0.8514 -1.4961,1.5487 -2.4662,2.0279 -0.9379,0.4634 -1.9898,0.7239 -3.0973,0.7239 -1.9345,0 -3.686,-0.7846 -4.9541,-2.0526 -1.2679,-1.2679 -2.0524,-3.0196 -2.0524,-4.9541 0,-1.9343 0.7845,-3.686 2.0524,-4.954 1.2681,-1.2679 3.0196,-2.0525 4.9541,-2.0525 1.1075,0 2.1594,0.2604 3.0973,0.7238 0.9701,0.4792 1.8135,1.1765 2.4662,2.0279l-0.0012 0.0011 5.5706 7.1416 0.0089 0.0088c0.444,0.5794 1.0177,1.0537 1.6771,1.3797 0.6314,0.312 1.3466,0.4871 2.1073,0.4871 1.3153,0 2.5062,-0.5332 3.3683,-1.3952 0.319,-0.3191 0.5929,-0.6833 0.8116,-1.0821l2.4449 0zm-14.0878 -20.1745c9.8779,0 17.8884,8.0105 17.8884,17.8883 0,9.8779 -8.0105,17.8884 -17.8884,17.8884 -9.8778,0 -17.8883,-8.0105 -17.8883,-17.8884 0,-9.8778 8.0105,-17.8883 17.8883,-17.8883zm0 -2.6211c11.3252,0 20.5095,9.1842 20.5095,20.5094 0,11.3251 -9.1843,20.5095 -20.5095,20.5095 -11.325,0 -20.5094,-9.1844 -20.5094,-20.5095 0,-11.3252 9.1844,-20.5094 20.5094,-20.5094z"/>
 </g>
</svg>
