<?xml version="1.0" standalone="no"?><!DOCTYPE svg PUBLIC "-//W3C//DTD SVG 1.1//EN" "http://www.w3.org/Graphics/SVG/1.1/DTD/svg11.dtd"><svg t="1626262152310" class="icon" viewBox="0 0 1024 1024" version="1.1" xmlns="http://www.w3.org/2000/svg" p-id="9518" xmlns:xlink="http://www.w3.org/1999/xlink" width="200" height="200"><defs><style type="text/css"></style></defs><path d="M192.682 617.136a58.286 58.286 0 0 0 37.041 13.318c2.3 0 4.602-0.136 6.901-0.407 15.795-1.898 30.12-10.182 39.748-22.92L396.812 447.3 516.73 548.827c12.159 10.277 27.935 15.387 43.768 13.491a58.385 58.385 0 0 0 40.055-22.317l275.425-354.943c2.01-2.593 3.597-5.38 5.124-8.168l48.35-57.257c25.905-30.68 14.77-50.599-24.746-44.25l-227.868 36.584c-39.534 6.35-47.75 33.817-18.268 61.071l45.566 42.1-158.506 204.27L425.075 317.32c-12.275-10.336-28.147-15.215-44.192-13.452-15.931 1.78-30.449 10.083-40.134 22.956L219.788 487.35l-58.093-47.793c-25.015-20.595-61.902-16.917-82.355 8.285-20.453 25.163-16.78 62.25 8.255 82.808l105.087 86.485z" p-id="9519"></path><path d="M878.626 349.26l-268.6 327.068c-12.064 15.29-42.745-6.659-57.552-19.24l-107.952-94.965c-14.808-12.581-37 8.71-49.315 23.809L269.76 739.817c-12.294 15.098-34.412-2.207-49.103-14.925l-109.458-87.047c-19.642-18.891-38.375 0.814-38.375 38.482l0.676 233.131c0.038 19.55 15.929 35.539 35.28 35.558l810.56 0.64c19.37 0.018 35.203-15.97 35.203-35.52 0 0 0.812-503.446 0.812-541.657 0.02-51.236-40.443-61.069-76.729-19.22z" p-id="9520"></path></svg>