<?xml version="1.0" encoding="UTF-8"?>
<!DOCTYPE svg PUBLIC "-//W3C//DTD SVG 1.1//EN" "http://www.w3.org/Graphics/SVG/1.1/DTD/svg11.dtd">
<!-- Creator: CorelDRAW -->
<?xml-stylesheet href="我的预测.css" type="text/css"?>
<svg xmlns="http://www.w3.org/2000/svg" xml:space="preserve" width="50mm" height="50mm" style="shape-rendering:geometricPrecision; text-rendering:geometricPrecision; image-rendering:optimizeQuality; fill-rule:evenodd; clip-rule:evenodd"
viewBox="0 0 50 50"
 xmlns:xlink="http://www.w3.org/1999/xlink"
 version="1.0"
 enable-background="new 0 0 200 200">
 <g id="图层_x0020_1">
  <metadata id="CorelCorpID_0Corel-Layer"/>
  <path class="fil0" d="M25.6749 22.5097l5.5056 -5.4761c0.0219,-0.0221 0.0436,-0.0428 0.0672,-0.062l-1.0168 -4.2064c-0.053,-0.2179 0.0111,-0.4474 0.169,-0.6064l6.2259 -6.2659c0.2515,-0.2522 0.6601,-0.2529 0.9125,-0.0014 0.0838,0.0839 0.1433,0.1893 0.1715,0.3047l1.2425 5.1355 5.1097 1.2194c0.3465,0.0822 0.5609,0.4301 0.4786,0.7768 -0.0272,0.115 -0.0856,0.2204 -0.1689,0.3045l-6.2284 6.2684c-0.1583,0.1593 -0.3881,0.2248 -0.6064,0.173l-4.6412 -1.1058 -5.4 5.3703c0.3632,1.3805 -0.4608,2.794 -1.8414,3.1573 -0.2135,0.0561 -0.4331,0.0848 -0.654,0.0852 -1.4254,0.001 -2.5815,-1.1536 -2.5828,-2.5788 -0.0009,-1.4251 1.1534,-2.5815 2.5788,-2.5827 0.2291,-0.0001 0.4572,0.0303 0.6786,0.0904zm7.3184 -9.2979l0.8027 3.3173 3.2827 0.7832 3.0309 -3.0517 -3.2943 -0.7846 -0.7998 -3.3071 -3.0222 3.0429zm-2.6452 -7.488c0.6917,0.1726 1.1123,0.8728 0.94,1.5643 -0.1726,0.6916 -0.8728,1.1123 -1.5643,0.9397 -0.0211,-0.0051 -0.0425,-0.0112 -0.0632,-0.0174 -1.518,-0.4195 -3.0858,-0.6313 -4.6607,-0.6298 -9.6206,0 -17.4194,7.7988 -17.4194,17.4193 0,9.6206 7.7988,17.4193 17.4193,17.4193 9.6206,0 17.4193,-7.7988 17.4193,-17.4194 0,-1.5547 -0.2039,-3.0813 -0.6013,-4.5534 -0.1858,-0.688 0.2216,-1.3964 0.9098,-1.582 0.6879,-0.1855 1.3963,0.2216 1.5819,0.9098l0 0c0.4568,1.6904 0.6905,3.4426 0.6905,5.2258 0,11.0452 -8.9549,19.9999 -19.9999,19.9999 -11.045,0 -20.0001,-8.9547 -20.0001,-19.9999 0,-11.0452 8.9547,-19.9999 19.9999,-19.9999 1.8258,0 3.6207,0.2453 5.3496,0.7225l-0.0014 0.0012zm-2.4513 8.0285c0.6896,0.179 1.1034,0.8835 0.9242,1.5733 -0.1786,0.6872 -0.8789,1.1011 -1.567,0.926 -4.8308,-1.244 -9.7551,1.6637 -10.9991,6.4944 -1.2439,4.8308 1.6637,9.7553 6.4944,10.9992 4.8308,1.2437 9.7553,-1.6639 10.9993,-6.4945 0.3793,-1.473 0.3807,-3.0176 0.0037,-4.491 -0.1766,-0.6905 0.2403,-1.3933 0.9308,-1.5696 0.6908,-0.1763 1.3933,0.2403 1.5698,0.9308 1.5891,6.2139 -2.16,12.5389 -8.3735,14.1282 -6.2136,1.5892 -12.539,-2.1599 -14.1283,-8.3735 -1.5891,-6.2136 2.1598,-12.5391 8.3736,-14.1282 1.8937,-0.4838 3.879,-0.4822 5.7721,0.0049l0 0z"/>
 </g>
</svg>
