<?xml version="1.0" encoding="UTF-8"?>
<!DOCTYPE svg PUBLIC "-//W3C//DTD SVG 1.1//EN" "http://www.w3.org/Graphics/SVG/1.1/DTD/svg11.dtd">
<!-- Creator: CorelDRAW 2020 (64-Bit) -->
<svg xmlns="http://www.w3.org/2000/svg" xml:space="preserve" width="30mm" height="30mm" style="shape-rendering:geometricPrecision; text-rendering:geometricPrecision; image-rendering:optimizeQuality; fill-rule:evenodd; clip-rule:evenodd"
viewBox="0 0 1500 1500"
 xmlns:xlink="http://www.w3.org/1999/xlink"
 xmlns:xodm="http://www.corel.com/coreldraw/odm/2003">
 <defs>
  <style type="text/css">
   <![CDATA[
    .fil0 {fill:#332C2B;fill-rule:nonzero}
   ]]>
  </style>
 </defs>
 <g id="图层_x0020_1">
  <metadata id="CorelCorpID_0Corel-Layer"/>
  <path class="fil0" d="M297.08 783.54c-23.64,0 -45.9,-10.38 -60.12,-28.02l-225.43 -279.96c-17.06,-20.72 -19.89,-49.71 -7.13,-73.33 13.61,-24.23 39.4,-39.08 67.19,-38.7l450.97 0c28.32,0.07 54.12,15.01 66.91,38.52 11.37,22.69 8.74,49.89 -6.78,69.97l-225.49 280.02c-14.04,19.29 -36.27,30.94 -60.12,31.5zm898.81 -360c-23.7,0 -45.96,-10.38 -60.12,-28.02l-225.48 -279.97c-15.55,-20.09 -18.19,-47.32 -6.78,-70.02 10.68,-25.62 37.38,-42.42 66.9,-42l450.91 0c28.5,0 54.54,15 67.2,38.7 12.77,23.6 9.96,52.59 -7.08,73.32l-225.43 279.97c-14.8,17.91 -36.88,28.21 -60.12,28.02zm232.8 131.52c-10.54,-27.73 -31.67,-50.13 -58.73,-62.29 -26.74,-11.9 -57.18,-12.34 -84.25,-1.19l-1099.69 453.37c-49.14,20.03 -77.52,73.19 -67.57,126.71 9.97,53.47 55.44,92.11 108.24,91.99 13.99,0 27.78,-2.64 40.75,-7.92l399.12 -164.35 0 285.61 -219.9 0c-60.72,0 -109.98,50.69 -109.98,113.28 0,62.58 49.2,113.28 109.98,113.28l659.83 0c60.72,0 109.92,-50.76 109.92,-113.34 0,-62.58 -49.2,-113.28 -109.92,-113.28l-219.97 0 0 -376.21 480.62 -198.36c27.34,-11.36 49.06,-33.12 60.36,-60.48 11.58,-27.6 11.99,-58.86 1.19,-86.82z"/>
 </g>
</svg>
