<?xml version="1.0" encoding="UTF-8"?>
<!DOCTYPE svg PUBLIC "-//W3C//DTD SVG 1.1//EN" "http://www.w3.org/Graphics/SVG/1.1/DTD/svg11.dtd">
<!-- Creator: CorelDRAW 2020 (64-Bit) -->
<svg xmlns="http://www.w3.org/2000/svg" xml:space="preserve" width="15mm" height="15mm" version="1.1" style="shape-rendering:geometricPrecision; text-rendering:geometricPrecision; image-rendering:optimizeQuality; fill-rule:evenodd; clip-rule:evenodd"
viewBox="0 0 1500 1500"
 xmlns:xlink="http://www.w3.org/1999/xlink"
 xmlns:xodm="http://www.corel.com/coreldraw/odm/2003">
 <defs>
  <style type="text/css">
   <![CDATA[
    .fil0 {fill:#332C2B;fill-rule:nonzero}
   ]]>
  </style>
 </defs>
 <g id="图层_x0020_1">
  <metadata id="CorelCorpID_0Corel-Layer"/>
  <path class="fil0" d="M1437.45 458.44c-75.69,-181.12 -218.83,-325.72 -399.16,-403.24 -186.59,-79.01 -397.24,-79.01 -583.82,0 -89.22,38.14 -170.18,93.27 -238.36,162.32 -141.16,142.58 -220.12,335.25 -219.63,535.89 -0.57,303.37 179.56,577.93 458.06,698.22 92.28,39.38 191.6,59.62 291.94,59.47 199.34,0.27 390.41,-79.69 530.13,-221.87 68.79,-69 123.41,-150.76 160.81,-240.74 78.72,-188.81 78.73,-401.24 0.03,-590.05zm-394.71 3.69c58.23,0 105.67,48.02 105.67,107.19 0,58.89 -47.44,106.91 -105.67,106.91 -58.42,0 -106.06,-48.02 -106.06,-106.91 -0.03,-59.17 47.61,-107.19 106.06,-107.19zm-592.38 -2.01c58.41,0 106.09,47.99 106.09,106.99 0,59 -47.64,107.05 -106.09,107.05 -28.28,-0.07 -55.36,-11.45 -75.2,-31.6 -19.88,-20.12 -30.89,-47.35 -30.57,-75.62 0,-58.89 47.37,-106.82 105.77,-106.82zm679.21 717.33c-23.66,16.97 -56.51,12.12 -74.25,-10.97 -71.03,-96.39 -186.54,-153.7 -308.8,-153.7 -122.28,0 -237.81,57.31 -308.71,153.53 -17.7,23.19 -50.62,28.13 -74.35,11.18 -23.51,-17.75 -28.33,-51.13 -10.8,-74.8 44.51,-60.24 102.4,-109.33 169.12,-143.38 141.15,-71.62 308.01,-71.62 449.16,0 66.82,34.07 124.82,83.19 169.43,143.48 17.25,23.64 12.46,56.79 -10.8,74.66z"/>
 </g>
</svg>
