<?xml version="1.0" encoding="UTF-8"?>
<!DOCTYPE svg PUBLIC "-//W3C//DTD SVG 1.1//EN" "http://www.w3.org/Graphics/SVG/1.1/DTD/svg11.dtd">
<!-- Creator: CorelDRAW 2020 (64-Bit) -->
<svg xmlns="http://www.w3.org/2000/svg" xml:space="preserve" width="15mm" height="15mm" version="1.1" style="shape-rendering:geometricPrecision; text-rendering:geometricPrecision; image-rendering:optimizeQuality; fill-rule:evenodd; clip-rule:evenodd"
viewBox="0 0 1500 1500"
 xmlns:xlink="http://www.w3.org/1999/xlink"
 xmlns:xodm="http://www.corel.com/coreldraw/odm/2003">
 <defs>
  <style type="text/css">
   <![CDATA[
    .fil0 {fill:#332C2B;fill-rule:nonzero}
   ]]>
  </style>
 </defs>
 <g id="图层_x0020_1">
  <metadata id="CorelCorpID_0Corel-Layer"/>
  <path class="fil0" d="M251.22 6.99l213.36 369.54c44.58,-24 92.04,-42.19 141.23,-54.13l-182.21 -315.41 172.44 0 150.42 260.54 150.43 -260.54 172.45 0 -182.01 315.18c49.87,12.02 97.28,30.31 141.39,53.9l212.99 -369.08 172.37 0 -263.07 455.98c181.27,166.47 241.86,427.09 152.61,656.45 -89.26,229.37 -310.07,380.48 -556.18,380.64 -246.12,0.17 -467.12,-150.68 -556.67,-379.92 -89.55,-229.24 -29.31,-489.94 151.75,-656.64l-263.67 -456.51 172.37 0zm495.76 447.92c-247.36,0 -447.91,200.54 -447.91,447.92 0,247.37 200.55,447.9 447.91,447.9 247.39,0 447.92,-200.53 447.92,-447.9 0,-247.38 -200.53,-447.92 -447.92,-447.92zm0 149.3c106.69,-0.01 205.28,56.91 258.63,149.31 53.35,92.38 53.35,206.22 0,298.62 -53.35,92.38 -151.94,149.3 -258.63,149.29 -164.9,-0.01 -298.58,-133.7 -298.58,-298.6 0,-164.91 133.68,-298.6 298.58,-298.62zm0 149.31c-82.45,0 -149.3,66.85 -149.3,149.31 0,82.45 66.85,149.3 149.3,149.3 82.46,0 149.32,-66.85 149.32,-149.3 0,-82.46 -66.86,-149.31 -149.32,-149.31z"/>
 </g>
</svg>
