<?xml version="1.0" encoding="UTF-8"?>
<!DOCTYPE svg PUBLIC "-//W3C//DTD SVG 1.1//EN" "http://www.w3.org/Graphics/SVG/1.1/DTD/svg11.dtd">
<!-- Creator: CorelDRAW 2020 (64-Bit) -->
<svg xmlns="http://www.w3.org/2000/svg" xml:space="preserve" width="15mm" height="15mm" version="1.1" style="shape-rendering:geometricPrecision; text-rendering:geometricPrecision; image-rendering:optimizeQuality; fill-rule:evenodd; clip-rule:evenodd"
viewBox="0 0 1500 1500"
 xmlns:xlink="http://www.w3.org/1999/xlink"
 xmlns:xodm="http://www.corel.com/coreldraw/odm/2003">
 <defs>
  <style type="text/css">
   <![CDATA[
    .fil0 {fill:#332C2B;fill-rule:nonzero}
   ]]>
  </style>
 </defs>
 <g id="图层_x0020_1">
  <metadata id="CorelCorpID_0Corel-Layer"/>
  <path class="fil0" d="M746.47 3.51c-414.21,0 -750,335.81 -750,750 0,414.2 335.79,750.04 750,750.04 414.21,0 750,-335.84 750,-750.04 0,-414.19 -335.79,-750 -750,-750zm153.37 495.64l69.38 -69.38c23.12,-30.82 69.39,-30.82 100.22,0 30.84,23.13 30.84,69.38 0,100.21l-69.38 69.36c-23.12,30.84 -69.36,30.84 -100.22,0 -30.81,-23.13 -30.81,-69.36 0,-100.19zm-616.65 277.49l0 -46.24c0,-30.83 23.12,-46.26 46.24,-46.26l154.2 0c23.12,0 46.22,23.13 46.22,46.26l0 46.24c0,30.83 -23.1,46.26 -53.96,46.26l-146.46 0c-23.12,0 -46.24,-23.14 -46.24,-46.26zm308.32 231.25l-69.35 69.39c-23.15,30.83 -69.39,30.83 -100.22,0 -30.82,-23.13 -30.82,-69.39 0,-100.22l69.38 -69.39c23.12,-30.81 69.36,-30.81 100.19,0 30.84,23.14 30.84,69.39 0,100.22zm0 -408.55c-30.83,30.84 -77.07,30.84 -100.19,0l-69.38 -69.36c-30.81,-23.14 -30.81,-69.37 0,-100.21 23.12,-30.82 69.38,-30.82 100.22,0l69.36 69.38c30.83,23.12 30.83,69.37 -0.01,100.19zm223.57 570.43c0,23.12 -23.15,46.25 -46.27,46.25l-46.24 0c-23.12,0 -46.27,-23.13 -46.27,-46.25l0 -146.45c0,-23.15 23.15,-46.26 46.27,-46.26l46.24 0c30.83,0 46.27,15.4 46.27,46.26l0 146.45zm0 -686.05c0,23.12 -23.15,46.26 -46.27,46.26l-46.24 0c-23.12,0 -46.27,-23.14 -46.27,-46.26l0 -146.45c0,-23.13 15.43,-46.25 46.27,-46.25l46.24 0c30.83,0 46.27,23.12 46.27,46.25l0 146.45zm254.36 593.56c-23.12,30.83 -69.38,30.83 -100.22,0l-69.38 -69.39c-30.81,-23.12 -30.81,-69.36 0,-100.22 23.15,-30.81 69.38,-30.81 100.22,0l69.38 69.39c30.84,23.11 30.84,69.38 0,100.22zm138.75 -300.64c0,23.12 -23.12,46.26 -46.24,46.26l-146.49 0c-23.12,0 -46.24,-23.14 -46.24,-46.26l0 -46.24c0,-23.13 23.12,-46.26 46.24,-46.26l146.49 0c23.12,0 46.24,15.43 46.24,46.26l0 46.24z"/>
 </g>
</svg>
