<?xml version="1.0" encoding="UTF-8"?>
<!DOCTYPE svg PUBLIC "-//W3C//DTD SVG 1.1//EN" "http://www.w3.org/Graphics/SVG/1.1/DTD/svg11.dtd">
<!-- Creator: CorelDRAW 2020 (64-Bit) -->
<svg xmlns="http://www.w3.org/2000/svg" xml:space="preserve" width="15mm" height="15mm" version="1.1" style="shape-rendering:geometricPrecision; text-rendering:geometricPrecision; image-rendering:optimizeQuality; fill-rule:evenodd; clip-rule:evenodd"
viewBox="0 0 1500 1500"
 xmlns:xlink="http://www.w3.org/1999/xlink"
 xmlns:xodm="http://www.corel.com/coreldraw/odm/2003">
 <defs>
  <style type="text/css">
   <![CDATA[
    .fil0 {fill:#332C2B;fill-rule:nonzero}
   ]]>
  </style>
 </defs>
 <g id="图层_x0020_1">
  <metadata id="CorelCorpID_0Corel-Layer"/>
  <path class="fil0" d="M746.47 1503.52c-414.21,0 -749.99,-335.78 -749.99,-750 0,-414.21 335.78,-749.99 749.99,-749.99 414.22,0 750,335.78 750,749.99 0,414.22 -335.78,750 -750,750zm0 -1333.27c-322.18,0 -583.28,261.1 -583.28,583.27 0,322.18 261.1,583.4 583.28,583.4 322.18,0 583.29,-261.22 583.29,-583.28 0,-322.08 -261.11,-583.39 -583.29,-583.39zm441.97 396.74l-530.36 530.35c-16.28,16.29 -42.65,16.29 -58.93,0l-294.64 -294.63c-16.28,-16.29 -16.28,-42.65 0,-58.93l58.93 -58.93c16.28,-16.29 42.64,-16.29 58.93,0l206.24 206.25 441.97 -441.96c16.28,-16.29 42.64,-16.29 58.93,0l58.93 58.93c16.28,16.28 16.28,42.63 0,58.92z"/>
 </g>
</svg>
